<svg width="143" height="54" viewBox="0 0 143 54" fill="none" xmlns="http://www.w3.org/2000/svg">
<path d="M69.7823 23.6L60.7075 26.6326L69.7823 29.8105L78.8572 26.6326L69.7823 23.6Z" fill="#B99B4A"/>
<path d="M62.7346 21.3088V15.0203H60.7583V13.4572H66.3065V15.0203H64.3483V21.3088H62.7346Z" fill="white"/>
<path d="M71.4742 21.3087V18.1645H69.099V21.3087H67.5034V13.4213H69.099V16.5655H71.4742V13.4213H73.0698V21.2908H71.4742V21.3087Z" fill="white"/>
<path d="M74.8281 21.3087V13.4213H78.9984V15.0024H76.4237V16.5834H78.5088V18.1645H76.4237V19.7456H78.9984V21.3267L74.8281 21.3087Z" fill="white"/>
<path d="M88.6261 29.5735L82.0625 13.4213H85.6707L88.8981 21.5423L92.0348 13.583H92.1798L95.3166 21.5423L98.544 13.4213H102.152L95.6067 29.5735H95.0265L92.1073 22.5664L89.2063 29.5915L88.6261 29.5735Z" fill="white"/>
<path d="M104.727 29.5735V13.4392H112.868V16.6553H107.973V19.8714H112.252V23.0874H107.973V26.3035H113.14V29.5196L104.727 29.5735Z" fill="white"/>
<path d="M116.458 13.4213H122.913C125.814 13.4213 127.609 15.4695 127.536 18.3262C127.482 19.548 127.065 20.8057 126.031 21.5243C127.101 22.243 127.718 23.4827 127.718 24.7404C127.718 27.4355 125.542 29.5915 122.913 29.5915H116.458V13.4213ZM119.722 19.9073H121.68H122.605C123.529 19.9073 124.109 19.1707 124.109 18.2723C124.109 17.374 123.529 16.6373 122.605 16.6373H119.704V19.9073H119.722ZM119.722 26.3754H121.68H122.605C123.529 26.3754 124.255 25.6567 124.255 24.7404C124.255 23.8241 123.547 23.1414 122.605 23.1414H119.704V26.3754H119.722Z" fill="white"/>
<path d="M64.8378 33.9575C61.6466 33.9575 61.6466 38.8085 64.8378 38.8085C65.5268 38.8085 66.0889 38.6109 66.3971 38.4492L66.6147 40.1021C66.1251 40.2998 65.418 40.4435 64.8559 40.4435C59.3983 40.4435 59.4165 32.3584 64.8559 32.3584C65.418 32.3584 65.9619 32.4662 66.4515 32.6818L66.2702 34.3348C65.9438 34.1551 65.5449 33.9575 64.8378 33.9575Z" fill="white"/>
<path d="M71.7458 32.3224C77.294 32.3224 77.294 40.5333 71.7458 40.5333C66.2338 40.5333 66.2338 32.3224 71.7458 32.3224ZM71.7458 33.9574C68.5184 33.9574 68.5184 38.8804 71.7458 38.8804C74.9732 38.8983 74.9732 33.9574 71.7458 33.9574Z" fill="white"/>
<path d="M79.0165 40.4255H77.4028V32.3045H77.8199L81.8813 36.9939V32.5021H83.5131V40.6052H83.0961L79.0347 36.1135L79.0165 40.4255Z" fill="white"/>
<path d="M86.9403 34.0652V35.6643H88.9892V37.2633H86.9403V40.4614H85.3447V32.4841H89.3518V34.0832L86.9403 34.0652Z" fill="white"/>
<path d="M90.6753 40.4256V32.4482H94.7004V34.0473H92.289V35.6464H94.4103V37.2454H92.289V38.8445H94.8274V40.4435L90.6753 40.4256Z" fill="white"/>
<path d="M100.339 40.4256L98.7073 37.3891H97.9277V40.4256H96.314V32.4482H99.487C102.352 32.4482 102.642 36.4369 100.267 37.1376L102.134 40.4256H100.339ZM97.9458 35.844H99.36C100.448 35.844 100.448 34.0653 99.36 34.0653H97.9458V35.844Z" fill="white"/>
<path d="M103.222 40.4256V32.4482H107.247V34.0473H104.818V35.6464H106.939V37.2454H104.818V38.8445H107.374V40.4435L103.222 40.4256Z" fill="white"/>
<path d="M110.511 40.4255H108.897V32.3045H109.314L113.376 36.9939V32.5021H115.008V40.6052H114.591L110.529 36.1135L110.511 40.4255Z" fill="white"/>
<path d="M120.537 33.9575C117.346 33.9575 117.346 38.8085 120.537 38.8085C121.226 38.8085 121.789 38.6109 122.097 38.4492L122.314 40.1021C121.825 40.2998 121.118 40.4435 120.556 40.4435C115.098 40.4435 115.116 32.3584 120.556 32.3584C121.118 32.3584 121.662 32.4662 122.151 32.6818L121.97 34.3348C121.625 34.1551 121.226 33.9575 120.537 33.9575Z" fill="white"/>
<path d="M123.565 40.4256V32.4482H127.736V34.0473H125.179V35.6464H127.301V37.2454H125.179V38.8445H127.736V40.4435L123.565 40.4256Z" fill="white"/>
<path d="M13.5624 50.0558H20.7968L9.91797 43.8213L13.5624 50.0558Z" fill="#B99B4A"/>
<path d="M40.5601 3.57544L33.3257 3.59341L44.2045 9.82792L40.5601 3.57544Z" fill="#B99B4A"/>
<path d="M13.5081 3.61133L9.88184 9.82788L20.7788 3.61133H13.5081Z" fill="#B99B4A"/>
<path d="M40.6145 50.0379L44.2407 43.8033L33.3438 50.0379H40.6145Z" fill="#B99B4A"/>
<path d="M0 26.8425L3.62629 33.0591V20.608L0 26.8425Z" fill="#B99B4A"/>
<path d="M54.1404 26.7887L50.5142 20.5721V33.0412L54.1404 26.7887Z" fill="#B99B4A"/>
<path d="M3.62646 40.2279L9.91807 43.8213L3.62646 33.0591V40.2279Z" fill="#B99B4A"/>
<path d="M27.0703 53.6312L33.3438 50.0378L20.7969 50.0558L27.0703 53.6312Z" fill="#B99B4A"/>
<path d="M27.0699 0L20.7783 3.61135L33.3253 3.59338L27.0699 0Z" fill="#B99B4A"/>
<path d="M50.5142 33.0411L44.2407 43.8033L50.5142 40.2279V33.0411Z" fill="#B99B4A"/>
<path d="M50.5143 13.4033L44.2046 9.82788L50.5143 20.5721V13.4033Z" fill="#B99B4A"/>
<path d="M3.62646 13.4033V20.608L9.88181 9.82788L3.62646 13.4033Z" fill="#B99B4A"/>
<path d="M50.5144 20.5721L44.2046 9.8279L33.3258 3.59338L20.7788 3.61135L9.88181 9.8279L3.62646 20.608V33.0591L9.91807 43.8213L20.7969 50.0558L33.3439 50.0378L44.2409 43.8033L50.5144 33.0411V20.5721Z" fill="#AB8211"/>
<path d="M42.6632 35.7542V17.8951L27.0701 8.96552L11.459 17.8951V35.7542L27.0701 44.6837L42.6632 35.7542Z" fill="white"/>
<path d="M26.925 34.4785L22.791 29.7173H31.4941L27.3783 34.4785H26.925Z" fill="#2E3133"/>
<path d="M21.9027 27.0223L19.9626 22.9078L15.5386 23.1953L16.6627 26.5731L21.9027 27.0223Z" fill="#2E3133"/>
<path d="M32.3101 27.0223L34.0869 22.9078L38.7286 23.1953L37.5863 26.5731L32.3101 27.0223Z" fill="#2E3133"/>
<path d="M132.445 15.6789L133.519 16.0675V19.357L132.445 19.7596V21.9942L142.772 17.8164V17.6082L132.445 13.4303V15.6789ZM135.418 18.5687V16.7002L138.078 17.6486L135.418 18.5687ZM132.524 27.8522C132.524 28.5404 132.689 29.4076 132.937 30.0132L134.979 29.7517C134.786 29.38 134.537 28.7056 134.537 27.8522C134.537 23.9569 140.551 23.9569 140.551 27.8522C140.551 28.7056 140.317 29.1874 140.124 29.559L142.151 29.793C142.413 29.2011 142.537 28.5404 142.537 27.8522C142.537 21.1903 132.524 21.1766 132.524 27.8522ZM132.524 33.5695H138.027L135.379 36.0927L138.027 38.6159L132.524 38.6021V40.6014H142.537V39.9809L138.206 36.0927L142.537 32.2045V31.5703H132.524V33.5695Z" fill="#B99B4A"/>
</svg>
